# xmcd CD database file
#
# Track frame offsets:
#	150
#	19601
#	38584
#	56474
#	74503
#	93420
#	112039
#	130677
#	148835
#	164968
#	182229
#	199343
#	216212
#	245651
#
# Disc length: 3665 seconds
#
# Revision: 0
# Processed by: cddbd v1.5.2PL0 Copyright (c) Steve Scherf et al.
# Submitted via: CDex 1.51
#
DISCID=d80e4f0e
DTITLE=Simone  - Morgenrot
DYEAR=2009
DGENRE=Volkstümlich
TTITLE0=Ich hätt ja gesagt (Radio Edit)
TTITLE1=Die Nacht als sie fortlief
TTITLE2=Jeronimo Blue
TTITLE3=Wieviel Tränen bleiben ungeweint
TTITLE4=Morgenrot
TTITLE5=Halt mich ein letztes mal
TTITLE6=Küss mir den Regen vom Gesicht
TTITLE7=Weinen werd ich sicher nicht
TTITLE8=Wenn die Seele schweigt
TTITLE9=Sag Ihr nicht
TTITLE10=Hilf mir
TTITLE11=Bolero
TTITLE12=Ich hätt ja gesagt (Extended Version)
TTITLE13=Jeronimo Blue (Extended Version)
EXTD=YEAR: 2009
EXTT0=
EXTT1=
EXTT2=
EXTT3=
EXTT4=
EXTT5=
EXTT6=
EXTT7=
EXTT8=
EXTT9=
EXTT10=
EXTT11=
EXTT12=
EXTT13=
PLAYORDER=
